<?xml version="1.0" encoding="UTF-8" standalone="no"?>
<svg
   width="144"
   height="144"
   version="1.1"
   id="svg1095"
   sodipodi:docname="icon.svg"
   xml:space="preserve"
   inkscape:version="1.2.2 (732a01da63, 2022-12-09)"
   xmlns:inkscape="http://www.inkscape.org/namespaces/inkscape"
   xmlns:sodipodi="http://sodipodi.sourceforge.net/DTD/sodipodi-0.dtd"
   xmlns="http://www.w3.org/2000/svg"
   xmlns:svg="http://www.w3.org/2000/svg"><defs
     id="defs1099" /><sodipodi:namedview
     id="namedview1097"
     pagecolor="#ffffff"
     bordercolor="#000000"
     borderopacity="0.25"
     inkscape:showpageshadow="2"
     inkscape:pageopacity="0.0"
     inkscape:pagecheckerboard="0"
     inkscape:deskcolor="#d1d1d1"
     showgrid="false"
     showguides="true"
     inkscape:zoom="4"
     inkscape:cx="108.125"
     inkscape:cy="103.5"
     inkscape:window-width="1920"
     inkscape:window-height="1057"
     inkscape:window-x="-8"
     inkscape:window-y="-8"
     inkscape:window-maximized="1"
     inkscape:current-layer="layer3" /><g
     inkscape:groupmode="layer"
     id="layer2"
     inkscape:label="tabuleiro"
     style="display:inline"><rect
       style="fill:#76428a;fill-opacity:1;stroke:none;stroke-width:96.8479;stroke-linecap:round;stroke-linejoin:round;-inkscape-stroke:none;paint-order:stroke markers fill;stop-color:#000000"
       id="rect1621-4-7"
       width="48"
       height="48"
       x="0"
       y="0" /><rect
       style="fill:#cbdbfc;fill-opacity:1;stroke:none;stroke-width:96.8479;stroke-linecap:round;stroke-linejoin:round;-inkscape-stroke:none;paint-order:stroke markers fill;stop-color:#000000"
       id="rect1621-4-7-1"
       width="48"
       height="48"
       x="48"
       y="0" /><rect
       style="fill:#d9a066;fill-opacity:1;stroke:none;stroke-width:96.8479;stroke-linecap:round;stroke-linejoin:round;-inkscape-stroke:none;paint-order:stroke markers fill;stop-color:#000000"
       id="rect1621-4-7-8"
       width="48"
       height="48"
       x="96"
       y="0" /><rect
       style="fill:#639bff;fill-opacity:1;stroke:none;stroke-width:96.8479;stroke-linecap:round;stroke-linejoin:round;-inkscape-stroke:none;paint-order:stroke markers fill;stop-color:#000000"
       id="rect1621-4-7-84"
       width="48"
       height="48"
       x="0"
       y="48" /><rect
       style="fill:#df7126;fill-opacity:1;stroke:none;stroke-width:96.8479;stroke-linecap:round;stroke-linejoin:round;-inkscape-stroke:none;paint-order:stroke markers fill;stop-color:#000000"
       id="rect1621-4-7-3"
       width="48"
       height="48"
       x="0"
       y="96" /><rect
       style="fill:#ac3232;fill-opacity:1;stroke:none;stroke-width:96.8479;stroke-linecap:round;stroke-linejoin:round;-inkscape-stroke:none;paint-order:stroke markers fill;stop-color:#000000"
       id="rect1621-4-7-6"
       width="48"
       height="48"
       x="48"
       y="48" /><rect
       style="fill:#5b6ee1;fill-opacity:1;stroke:none;stroke-width:96.8479;stroke-linecap:round;stroke-linejoin:round;-inkscape-stroke:none;paint-order:stroke markers fill;stop-color:#000000"
       id="rect1621-4-7-5"
       width="48"
       height="48"
       x="96"
       y="48" /><rect
       style="fill:#37946e;fill-opacity:1;stroke:none;stroke-width:96.8479;stroke-linecap:round;stroke-linejoin:round;-inkscape-stroke:none;paint-order:stroke markers fill;stop-color:#000000"
       id="rect1621-4-7-2"
       width="48"
       height="48"
       x="48"
       y="96" /><rect
       style="fill:#d77bba;fill-opacity:1;stroke:none;stroke-width:96.8479;stroke-linecap:round;stroke-linejoin:round;-inkscape-stroke:none;paint-order:stroke markers fill;stop-color:#000000"
       id="rect1621-4-7-52"
       width="48"
       height="48"
       x="96"
       y="96" /></g><g
     inkscape:groupmode="layer"
     id="layer1"
     inkscape:label="grid"><rect
       style="fill:#4b4b4b;fill-opacity:1;stroke:none;stroke-width:56.7822;stroke-linecap:round;stroke-linejoin:round;-inkscape-stroke:none;paint-order:stroke markers fill;stop-color:#000000"
       id="rect1621-5-3"
       width="6"
       height="132"
       x="138"
       y="6" /><rect
       style="font-variation-settings:normal;vector-effect:none;fill:#4b4b4b;fill-opacity:1;stroke:none;stroke-width:56.7822;stroke-linecap:round;stroke-linejoin:round;stroke-miterlimit:4;stroke-dasharray:none;stroke-dashoffset:0;stroke-opacity:1;-inkscape-stroke:none;paint-order:stroke markers fill;stop-color:#000000"
       id="rect1621-6"
       width="6"
       height="132"
       x="0"
       y="6" /><rect
       style="fill:#4b4b4b;fill-opacity:1;stroke:none;stroke-width:56.7822;stroke-linecap:round;stroke-linejoin:round;-inkscape-stroke:none;paint-order:stroke markers fill;stop-color:#000000"
       id="rect1621-0-4"
       width="132"
       height="6"
       x="6"
       y="138" /><rect
       style="fill:#4b4b4b;fill-opacity:1;stroke:none;stroke-width:56.7822;stroke-linecap:round;stroke-linejoin:round;-inkscape-stroke:none;paint-order:stroke markers fill;stop-color:#000000"
       id="rect1621-7"
       width="132"
       height="6"
       x="6"
       y="0" /></g><g
     inkscape:groupmode="layer"
     id="layer3"
     inkscape:label="o"
     inkscape:highlight-color="#b82417"><path
       id="rect1621-4-8"
       style="fill:#4b4b4b;fill-opacity:1;stroke:none;stroke-width:17.1205;stroke-linecap:round;stroke-linejoin:round;-inkscape-stroke:none;paint-order:stroke markers fill;stop-color:#000000"
       inkscape:label="pixel"
       d="m 66,18 v 6 H 48 v 6 h -6 v 6 h -6 v 6 h -6 v 6 h -6 c 0,4 0,8 0,12 h -6 c 0,13.853377 0,23.545897 0,36 h 6 v 6 6 h 6 v 6 h 12 v 6 h 12 v 6 h 24 v -6 h 12 v -6 h 12 v -6 h 6 v -6 h 6 V 84 h 6 c 0,-11.44772 0,-19.460584 0,-30 h -6 c 0,-4 0,-8 0,-12 h -6 c 0,-4 0,-8 0,-12 H 96 V 24 H 78 V 18 Z M 42,42 h 36 v 6 h 12 c 0,4 0,8 0,12 h 6 c 0,4 0,8 0,12 h 6 c 0,8 0,16 0,24 h -6 v 6 H 84 v 6 H 72 v -6 H 60 V 96 H 54 V 90 H 42 c 0,-4 0,-8 0,-12 h -6 c 0,-9.138224 0,-15.389222 0,-24 h 6 v -6 z"
       sodipodi:nodetypes="cccccccccccccccccccccccccccccccccccccccccccccccccccccccccccccccccccccc" /></g></svg>
